<?xml version="1.0" standalone="no"?>
<!DOCTYPE svg PUBLIC "-//W3C//DTD SVG 20010904//EN"
 "http://www.w3.org/TR/2001/REC-SVG-20010904/DTD/svg10.dtd">
<svg version="1.0" xmlns="http://www.w3.org/2000/svg"
 width="512.000000pt" height="512.000000pt" viewBox="0 0 512.000000 512.000000"
 preserveAspectRatio="xMidYMid meet">
<metadata>
Created by potrace 1.11, written by Peter Selinger 2001-2013
</metadata>
<g transform="translate(0.000000,512.000000) scale(0.100000,-0.100000)"
fill="#000000" stroke="none">
<path d="M2847 3633 l-57 -4 2 -1067 3 -1067 70 -8 c39 -4 203 -8 365 -10 250
-1 306 1 367 15 173 42 263 88 369 193 57 57 80 88 117 165 58 123 75 192 88
375 15 191 6 677 -14 795 -57 335 -257 545 -575 606 -55 10 -151 14 -375 12
-166 -1 -328 -3 -360 -5z m665 -234 c175 -37 296 -148 356 -327 l27 -77 3
-410 c3 -447 -1 -499 -52 -611 -53 -116 -177 -212 -321 -249 -63 -16 -242 -20
-378 -9 l-77 7 0 843 0 844 195 0 c106 0 218 -5 247 -11z"/>
<path d="M952 2808 c4 -790 4 -804 26 -881 67 -240 214 -383 448 -434 109 -24
313 -24 417 0 226 53 383 203 441 423 30 110 37 317 34 1009 l-3 680 -135 0
-135 0 -5 -805 c-4 -582 -9 -814 -17 -838 -34 -95 -108 -178 -191 -213 -112
-48 -283 -48 -395 0 -115 49 -190 163 -207 313 -6 46 -10 413 -10 816 l0 732
-136 0 -135 0 3 -802z"/>
</g>
</svg>
